<svg xmlns="http://www.w3.org/2000/svg" xmlns:xlink="http://www.w3.org/1999/xlink" width="150" zoomAndPan="magnify" viewBox="0 0 112.5 32.999998" height="44" preserveAspectRatio="xMidYMid meet" version="1.0"><defs><g/><clipPath id="2b4dc7ac2a"><path d="M 0.0625 12 L 39 12 L 39 32.925781 L 0.0625 32.925781 Z M 0.0625 12 " clip-rule="nonzero"/></clipPath><clipPath id="a396e9a83c"><path d="M 0.0625 0.0742188 L 39 0.0742188 L 39 22 L 0.0625 22 Z M 0.0625 0.0742188 " clip-rule="nonzero"/></clipPath></defs><g clip-path="url(#2b4dc7ac2a)"><path fill="#ffffff" d="M 38.003906 13.265625 C 38.382812 13.65625 38.371094 14.273438 37.980469 14.648438 C 37.589844 15.023438 36.964844 15.011719 36.585938 14.621094 C 36.207031 14.234375 36.21875 13.617188 36.613281 13.242188 C 37.003906 12.867188 37.625 12.878906 38.003906 13.265625 Z M 31.976562 15.863281 C 31.597656 15.476562 31.609375 14.859375 32.003906 14.484375 C 32.394531 14.109375 33.015625 14.121094 33.394531 14.507812 C 33.773438 14.898438 33.761719 15.515625 33.371094 15.890625 C 32.976562 16.265625 32.355469 16.253906 31.976562 15.863281 Z M 25.085938 19.84375 C 24.707031 19.457031 24.71875 18.839844 25.109375 18.464844 C 25.5 18.089844 26.125 18.101562 26.503906 18.488281 C 26.878906 18.878906 26.871094 19.496094 26.476562 19.871094 C 26.085938 20.246094 25.460938 20.234375 25.085938 19.84375 Z M 26.046875 14.320312 C 25.667969 13.933594 25.679688 13.3125 26.070312 12.941406 C 26.460938 12.566406 27.085938 12.578125 27.464844 12.964844 C 27.839844 13.351562 27.832031 13.972656 27.4375 14.34375 C 27.046875 14.71875 26.421875 14.707031 26.046875 14.320312 Z M 34.242188 21.863281 C 33.867188 21.476562 33.878906 20.859375 34.269531 20.484375 C 34.660156 20.109375 35.285156 20.121094 35.664062 20.507812 C 36.039062 20.894531 36.027344 21.515625 35.636719 21.886719 C 35.246094 22.261719 34.621094 22.25 34.242188 21.863281 Z M 38.449219 12.84375 C 37.832031 12.210938 36.820312 12.195312 36.183594 12.800781 C 35.570312 13.390625 35.53125 14.34375 36.082031 14.976562 C 36 15.078125 35.917969 15.179688 35.835938 15.28125 C 34.386719 17.054688 32.871094 18.886719 31.222656 20.726562 C 29.574219 22.5625 27.792969 24.410156 25.742188 26.117188 C 25.613281 26.226562 25.488281 26.335938 25.355469 26.4375 L 24.953125 26.746094 C 24.683594 26.953125 24.417969 27.160156 24.144531 27.363281 C 23.859375 27.554688 23.578125 27.75 23.292969 27.945312 C 23.148438 28.039062 23.011719 28.140625 22.859375 28.230469 L 22.410156 28.5 L 21.957031 28.765625 C 21.808594 28.855469 21.660156 28.949219 21.5 29.027344 C 21.183594 29.183594 20.863281 29.34375 20.546875 29.503906 C 19.898438 29.816406 19.203125 30.09375 18.496094 30.304688 C 17.789062 30.519531 17.0625 30.691406 16.324219 30.796875 C 15.582031 30.90625 14.832031 30.96875 14.082031 30.964844 C 13.328125 30.957031 12.574219 30.910156 11.824219 30.789062 C 11.566406 30.75 11.308594 30.699219 11.054688 30.648438 C 11.175781 30.660156 11.300781 30.671875 11.421875 30.679688 C 13.039062 30.78125 14.664062 30.597656 16.195312 30.152344 C 16.960938 29.933594 17.710938 29.640625 18.414062 29.289062 C 18.761719 29.109375 19.117188 28.945312 19.457031 28.753906 C 19.792969 28.554688 20.128906 28.355469 20.460938 28.160156 C 21.765625 27.324219 22.972656 26.378906 24.113281 25.390625 C 24.664062 24.875 25.230469 24.382812 25.75 23.851562 C 26.011719 23.589844 26.28125 23.332031 26.539062 23.066406 C 26.792969 22.800781 27.046875 22.535156 27.300781 22.269531 C 27.558594 22.003906 27.804688 21.734375 28.050781 21.460938 C 28.292969 21.191406 28.539062 20.921875 28.785156 20.65625 C 29.257812 20.109375 29.742188 19.574219 30.203125 19.027344 C 30.871094 18.242188 31.519531 17.464844 32.164062 16.6875 C 32.714844 16.875 33.347656 16.757812 33.796875 16.328125 C 34.433594 15.722656 34.453125 14.714844 33.839844 14.085938 C 33.226562 13.453125 32.210938 13.4375 31.574219 14.042969 C 30.972656 14.621094 30.925781 15.546875 31.4375 16.179688 C 30.8125 16.941406 30.179688 17.699219 29.527344 18.460938 C 29.070312 19.003906 28.59375 19.535156 28.121094 20.074219 C 27.878906 20.339844 27.636719 20.609375 27.394531 20.875 C 27.152344 21.140625 26.910156 21.410156 26.65625 21.667969 C 26.40625 21.933594 26.15625 22.195312 25.90625 22.457031 C 25.652344 22.71875 25.386719 22.972656 25.128906 23.230469 C 24.617188 23.75 24.0625 24.234375 23.523438 24.734375 C 22.414062 25.703125 21.242188 26.617188 19.988281 27.421875 C 19.667969 27.609375 19.347656 27.800781 19.027344 27.992188 C 18.699219 28.175781 18.363281 28.332031 18.027344 28.503906 C 17.359375 28.835938 16.667969 29.105469 15.949219 29.3125 C 14.511719 29.726562 12.992188 29.902344 11.480469 29.804688 C 10.832031 29.765625 10.1875 29.667969 9.550781 29.53125 C 11.070312 29.652344 12.59375 29.488281 14.019531 29.046875 C 14.585938 28.878906 15.125 28.664062 15.664062 28.40625 C 15.933594 28.269531 16.203125 28.136719 16.46875 28 C 16.605469 27.9375 16.734375 27.855469 16.863281 27.777344 L 17.644531 27.316406 C 17.773438 27.238281 17.894531 27.144531 18.023438 27.0625 C 18.273438 26.890625 18.523438 26.722656 18.773438 26.550781 C 19.019531 26.371094 19.257812 26.183594 19.5 26 L 19.859375 25.722656 C 19.980469 25.628906 20.09375 25.527344 20.210938 25.429688 C 21.988281 23.949219 23.609375 22.292969 25.132812 20.613281 C 25.710938 20.871094 26.417969 20.773438 26.90625 20.308594 C 27.542969 19.703125 27.5625 18.695312 26.945312 18.066406 C 26.332031 17.433594 25.320312 17.417969 24.683594 18.023438 C 24.117188 18.566406 24.039062 19.417969 24.460938 20.042969 C 22.957031 21.703125 21.367188 23.324219 19.644531 24.757812 C 19.53125 24.851562 19.421875 24.953125 19.304688 25.042969 L 18.953125 25.308594 C 18.722656 25.484375 18.488281 25.667969 18.253906 25.84375 C 18.011719 26.007812 17.773438 26.171875 17.53125 26.335938 C 17.410156 26.414062 17.292969 26.503906 17.167969 26.578125 L 16.796875 26.796875 L 16.425781 27.019531 C 16.300781 27.09375 16.179688 27.171875 16.050781 27.230469 C 15.792969 27.359375 15.539062 27.488281 15.285156 27.617188 C 14.777344 27.855469 14.285156 28.054688 13.757812 28.210938 C 11.941406 28.773438 9.945312 28.851562 8.039062 28.414062 C 8.058594 28.417969 8.082031 28.417969 8.105469 28.421875 C 9.261719 28.492188 10.417969 28.359375 11.515625 28.042969 L 11.921875 27.917969 L 12.324219 27.769531 C 12.460938 27.722656 12.589844 27.65625 12.722656 27.605469 C 12.789062 27.574219 12.851562 27.554688 12.917969 27.519531 L 13.128906 27.414062 C 13.402344 27.265625 13.683594 27.140625 13.957031 26.988281 C 14.230469 26.824219 14.503906 26.664062 14.777344 26.5 C 15.855469 25.808594 16.902344 24.992188 17.917969 24.109375 C 18.417969 23.644531 18.925781 23.207031 19.410156 22.710938 C 19.652344 22.46875 19.898438 22.234375 20.140625 21.984375 C 20.378906 21.734375 20.617188 21.484375 20.855469 21.238281 C 21.09375 20.992188 21.328125 20.730469 21.5625 20.476562 C 21.796875 20.21875 22.027344 19.960938 22.261719 19.707031 C 22.71875 19.179688 23.179688 18.667969 23.628906 18.136719 C 24.484375 17.132812 25.324219 16.125 26.152344 15.113281 C 26.722656 15.339844 27.398438 15.234375 27.867188 14.785156 C 28.503906 14.175781 28.519531 13.171875 27.90625 12.539062 C 27.292969 11.910156 26.28125 11.890625 25.644531 12.5 C 25.0625 13.054688 24.996094 13.941406 25.457031 14.570312 C 25.070312 15.046875 24.679688 15.519531 24.285156 15.992188 C 23.847656 16.523438 23.402344 17.042969 22.953125 17.570312 C 22.507812 18.097656 22.054688 18.605469 21.597656 19.128906 C 21.367188 19.378906 21.140625 19.632812 20.90625 19.886719 C 20.675781 20.140625 20.445312 20.398438 20.210938 20.636719 C 19.976562 20.882812 19.742188 21.128906 19.503906 21.375 C 19.269531 21.621094 19.027344 21.851562 18.789062 22.089844 C 18.3125 22.574219 17.820312 23 17.332031 23.457031 C 16.34375 24.316406 15.332031 25.101562 14.300781 25.761719 C 14.042969 25.917969 13.785156 26.070312 13.523438 26.222656 C 13.265625 26.371094 13.003906 26.488281 12.742188 26.625 L 12.546875 26.726562 C 12.484375 26.757812 12.425781 26.777344 12.363281 26.804688 C 12.242188 26.851562 12.128906 26.914062 12.003906 26.953125 L 11.636719 27.089844 L 11.265625 27.203125 C 10.265625 27.492188 9.214844 27.613281 8.160156 27.546875 C 6.058594 27.410156 3.957031 26.515625 2.429688 25.019531 C 1.691406 24.300781 1.074219 23.457031 0.617188 22.519531 C 0.578125 22.4375 0.539062 22.355469 0.503906 22.273438 C 0.503906 22.273438 0.402344 24.945312 3.460938 27.957031 C 6.484375 30.9375 10.589844 32.667969 14.742188 32.9375 C 16.820312 33.070312 18.910156 32.832031 20.882812 32.261719 L 21.613281 32.03125 C 21.855469 31.945312 22.09375 31.855469 22.335938 31.769531 C 22.574219 31.683594 22.804688 31.574219 23.039062 31.476562 C 23.152344 31.425781 23.277344 31.378906 23.382812 31.324219 L 23.703125 31.167969 C 24.125 30.953125 24.554688 30.746094 24.960938 30.519531 C 25.359375 30.285156 25.753906 30.050781 26.148438 29.816406 C 27.679688 28.835938 29.042969 27.765625 30.304688 26.664062 C 30.910156 26.105469 31.535156 25.558594 32.09375 24.992188 C 32.375 24.707031 32.667969 24.429688 32.941406 24.148438 C 33.210938 23.863281 33.480469 23.582031 33.753906 23.296875 C 33.960938 23.085938 34.15625 22.871094 34.351562 22.65625 C 34.917969 22.882812 35.59375 22.777344 36.066406 22.328125 C 36.703125 21.71875 36.71875 20.714844 36.105469 20.085938 C 35.492188 19.453125 34.476562 19.433594 33.839844 20.042969 C 33.261719 20.597656 33.195312 21.484375 33.65625 22.113281 C 33.476562 22.308594 33.296875 22.503906 33.105469 22.699219 C 32.839844 22.976562 32.574219 23.257812 32.304688 23.539062 C 32.035156 23.816406 31.75 24.089844 31.472656 24.367188 C 30.921875 24.925781 30.308594 25.464844 29.71875 26.011719 C 28.484375 27.085938 27.15625 28.132812 25.675781 29.078125 C 25.292969 29.304688 24.910156 29.53125 24.527344 29.757812 C 24.136719 29.976562 23.722656 30.171875 23.316406 30.378906 L 23.011719 30.53125 C 22.910156 30.582031 22.792969 30.628906 22.683594 30.675781 C 22.460938 30.769531 22.242188 30.871094 22.011719 30.953125 C 21.785156 31.039062 21.558594 31.121094 21.328125 31.203125 L 20.632812 31.421875 C 18.757812 31.964844 16.773438 32.1875 14.800781 32.0625 C 14.035156 32.015625 13.277344 31.910156 12.523438 31.757812 C 13.042969 31.808594 13.5625 31.835938 14.078125 31.839844 C 14.875 31.84375 15.671875 31.777344 16.453125 31.664062 C 17.238281 31.550781 18.007812 31.367188 18.757812 31.140625 C 19.503906 30.917969 20.242188 30.621094 20.925781 30.296875 C 21.257812 30.128906 21.589844 29.960938 21.917969 29.792969 C 22.085938 29.714844 22.242188 29.617188 22.398438 29.527344 L 22.867188 29.246094 L 23.335938 28.96875 C 23.492188 28.875 23.632812 28.769531 23.785156 28.671875 C 24.078125 28.472656 24.371094 28.269531 24.664062 28.070312 C 24.945312 27.863281 25.222656 27.648438 25.496094 27.4375 L 25.910156 27.121094 C 26.046875 27.011719 26.175781 26.898438 26.304688 26.789062 C 28.410156 25.035156 30.21875 23.160156 31.882812 21.308594 C 33.546875 19.449219 35.070312 17.609375 36.523438 15.832031 C 36.621094 15.707031 36.722656 15.582031 36.824219 15.460938 C 37.363281 15.625 37.972656 15.503906 38.40625 15.085938 C 39.042969 14.480469 39.0625 13.472656 38.449219 12.84375 " fill-opacity="1" fill-rule="nonzero"/></g><g clip-path="url(#a396e9a83c)"><path fill="#ffd322" d="M 1.121094 19.875 C 0.742188 19.488281 0.753906 18.871094 1.144531 18.496094 C 1.539062 18.121094 2.160156 18.132812 2.539062 18.519531 C 2.917969 18.910156 2.90625 19.527344 2.511719 19.902344 C 2.121094 20.277344 1.5 20.265625 1.121094 19.875 Z M 7.148438 17.277344 C 7.527344 17.667969 7.515625 18.285156 7.121094 18.660156 C 6.730469 19.035156 6.109375 19.023438 5.730469 18.632812 C 5.351562 18.246094 5.363281 17.628906 5.753906 17.253906 C 6.148438 16.878906 6.769531 16.890625 7.148438 17.277344 Z M 14.039062 13.296875 C 14.417969 13.6875 14.40625 14.304688 14.015625 14.679688 C 13.625 15.054688 13 15.042969 12.621094 14.652344 C 12.246094 14.265625 12.253906 13.648438 12.648438 13.273438 C 13.039062 12.898438 13.664062 12.910156 14.039062 13.296875 Z M 13.078125 18.824219 C 13.457031 19.210938 13.445312 19.828125 13.054688 20.203125 C 12.664062 20.578125 12.039062 20.566406 11.660156 20.179688 C 11.285156 19.789062 11.292969 19.171875 11.6875 18.796875 C 12.078125 18.425781 12.703125 18.433594 13.078125 18.824219 Z M 4.882812 11.28125 C 5.257812 11.667969 5.246094 12.285156 4.855469 12.660156 C 4.464844 13.035156 3.839844 13.023438 3.460938 12.636719 C 3.085938 12.246094 3.097656 11.628906 3.488281 11.253906 C 3.878906 10.882812 4.503906 10.890625 4.882812 11.28125 Z M 0.675781 20.300781 C 1.289062 20.929688 2.304688 20.949219 2.941406 20.339844 C 3.554688 19.753906 3.59375 18.800781 3.042969 18.167969 C 3.125 18.066406 3.207031 17.964844 3.289062 17.863281 C 4.738281 16.089844 6.253906 14.253906 7.902344 12.417969 C 9.550781 10.582031 11.332031 8.734375 13.382812 7.023438 C 13.511719 6.917969 13.636719 6.808594 13.769531 6.703125 L 14.171875 6.394531 C 14.441406 6.191406 14.707031 5.984375 14.980469 5.78125 C 15.265625 5.585938 15.546875 5.394531 15.832031 5.199219 C 15.976562 5.105469 16.113281 5 16.265625 4.914062 L 16.714844 4.644531 L 17.167969 4.375 C 17.316406 4.289062 17.464844 4.195312 17.625 4.117188 C 17.945312 3.957031 18.261719 3.800781 18.578125 3.640625 C 19.226562 3.328125 19.921875 3.050781 20.628906 2.839844 C 21.335938 2.625 22.0625 2.453125 22.800781 2.347656 C 23.542969 2.238281 24.292969 2.171875 25.042969 2.179688 C 25.796875 2.1875 26.550781 2.234375 27.300781 2.351562 C 27.558594 2.394531 27.816406 2.441406 28.070312 2.496094 C 27.949219 2.484375 27.824219 2.472656 27.703125 2.464844 C 26.085938 2.363281 24.460938 2.546875 22.929688 2.988281 C 22.164062 3.210938 21.414062 3.503906 20.710938 3.851562 C 20.363281 4.03125 20.007812 4.199219 19.667969 4.390625 C 19.332031 4.589844 18.996094 4.785156 18.664062 4.984375 C 17.359375 5.820312 16.152344 6.765625 15.015625 7.753906 C 14.460938 8.265625 13.894531 8.761719 13.375 9.292969 C 13.113281 9.554688 12.84375 9.8125 12.585938 10.078125 C 12.332031 10.34375 12.078125 10.609375 11.824219 10.875 C 11.566406 11.140625 11.320312 11.410156 11.074219 11.679688 C 10.832031 11.949219 10.585938 12.21875 10.339844 12.488281 C 9.867188 13.035156 9.382812 13.570312 8.921875 14.117188 C 8.253906 14.898438 7.605469 15.679688 6.960938 16.457031 C 6.410156 16.269531 5.777344 16.386719 5.328125 16.8125 C 4.691406 17.421875 4.671875 18.425781 5.285156 19.058594 C 5.898438 19.6875 6.914062 19.707031 7.550781 19.097656 C 8.152344 18.523438 8.199219 17.59375 7.6875 16.960938 C 8.3125 16.203125 8.945312 15.445312 9.597656 14.683594 C 10.054688 14.140625 10.53125 13.609375 11.003906 13.066406 C 11.246094 12.800781 11.488281 12.535156 11.730469 12.269531 C 11.972656 12.003906 12.214844 11.734375 12.46875 11.472656 C 12.71875 11.210938 12.96875 10.949219 13.21875 10.6875 C 13.472656 10.421875 13.738281 10.171875 13.996094 9.914062 C 14.507812 9.390625 15.0625 8.910156 15.601562 8.40625 C 16.710938 7.441406 17.882812 6.527344 19.136719 5.722656 C 19.457031 5.53125 19.777344 5.34375 20.097656 5.152344 C 20.425781 4.96875 20.765625 4.8125 21.097656 4.640625 C 21.765625 4.308594 22.457031 4.039062 23.175781 3.828125 C 24.613281 3.414062 26.132812 3.242188 27.644531 3.335938 C 28.292969 3.378906 28.9375 3.472656 29.574219 3.613281 C 28.054688 3.488281 26.53125 3.65625 25.105469 4.097656 C 24.539062 4.265625 24 4.480469 23.460938 4.738281 C 23.191406 4.875 22.925781 5.007812 22.65625 5.144531 C 22.519531 5.207031 22.390625 5.289062 22.261719 5.367188 L 21.480469 5.828125 C 21.351562 5.902344 21.230469 5.996094 21.101562 6.082031 C 20.851562 6.25 20.601562 6.421875 20.351562 6.59375 C 20.109375 6.773438 19.867188 6.960938 19.625 7.144531 L 19.265625 7.421875 C 19.144531 7.515625 19.03125 7.617188 18.914062 7.714844 C 17.136719 9.195312 15.515625 10.847656 13.992188 12.53125 C 13.414062 12.269531 12.707031 12.367188 12.21875 12.832031 C 11.582031 13.441406 11.566406 14.445312 12.179688 15.078125 C 12.792969 15.707031 13.804688 15.726562 14.441406 15.117188 C 15.007812 14.578125 15.085938 13.726562 14.664062 13.101562 C 16.167969 11.441406 17.757812 9.820312 19.480469 8.386719 C 19.59375 8.292969 19.703125 8.191406 19.820312 8.101562 L 20.171875 7.835938 C 20.402344 7.65625 20.636719 7.472656 20.871094 7.300781 C 21.113281 7.136719 21.351562 6.972656 21.59375 6.808594 C 21.714844 6.726562 21.832031 6.636719 21.957031 6.566406 L 22.328125 6.347656 L 22.699219 6.125 C 22.824219 6.050781 22.949219 5.972656 23.078125 5.914062 C 23.332031 5.785156 23.585938 5.65625 23.839844 5.527344 C 24.347656 5.285156 24.839844 5.089844 25.367188 4.933594 C 27.1875 4.367188 29.179688 4.289062 31.085938 4.730469 C 31.066406 4.726562 31.042969 4.722656 31.019531 4.722656 C 29.863281 4.652344 28.707031 4.785156 27.609375 5.097656 L 27.203125 5.226562 L 26.800781 5.375 C 26.664062 5.417969 26.535156 5.484375 26.402344 5.539062 C 26.339844 5.566406 26.273438 5.589844 26.207031 5.625 L 25.996094 5.730469 C 25.722656 5.875 25.441406 6.003906 25.167969 6.15625 C 24.894531 6.316406 24.621094 6.480469 24.347656 6.640625 C 23.269531 7.335938 22.222656 8.148438 21.207031 9.03125 C 20.707031 9.5 20.199219 9.9375 19.714844 10.433594 C 19.472656 10.675781 19.226562 10.910156 18.984375 11.15625 C 18.746094 11.410156 18.507812 11.65625 18.269531 11.90625 C 18.03125 12.152344 17.796875 12.410156 17.5625 12.667969 C 17.328125 12.925781 17.097656 13.179688 16.863281 13.4375 C 16.40625 13.964844 15.945312 14.476562 15.496094 15.007812 C 14.640625 16.011719 13.800781 17.019531 12.972656 18.03125 C 12.402344 17.804688 11.726562 17.910156 11.257812 18.359375 C 10.621094 18.96875 10.605469 19.972656 11.21875 20.601562 C 11.832031 21.234375 12.84375 21.25 13.480469 20.644531 C 14.0625 20.085938 14.128906 19.203125 13.667969 18.574219 C 14.054688 18.097656 14.445312 17.625 14.839844 17.152344 C 15.277344 16.617188 15.722656 16.101562 16.171875 15.574219 C 16.617188 15.046875 17.074219 14.539062 17.527344 14.015625 C 17.757812 13.761719 17.988281 13.511719 18.21875 13.257812 C 18.449219 13.003906 18.679688 12.746094 18.914062 12.503906 C 19.148438 12.257812 19.382812 12.011719 19.621094 11.765625 C 19.855469 11.523438 20.097656 11.292969 20.335938 11.054688 C 20.8125 10.570312 21.304688 10.144531 21.792969 9.6875 C 22.78125 8.828125 23.792969 8.039062 24.824219 7.378906 C 25.082031 7.226562 25.339844 7.074219 25.601562 6.917969 C 25.859375 6.773438 26.121094 6.65625 26.382812 6.519531 L 26.578125 6.417969 C 26.640625 6.386719 26.699219 6.367188 26.761719 6.339844 C 26.882812 6.292969 26.996094 6.230469 27.121094 6.191406 L 27.488281 6.054688 L 27.859375 5.9375 C 28.859375 5.652344 29.910156 5.53125 30.964844 5.597656 C 33.066406 5.734375 35.167969 6.628906 36.695312 8.125 C 37.433594 8.84375 38.050781 9.6875 38.507812 10.625 C 38.546875 10.707031 38.585938 10.789062 38.621094 10.871094 C 38.621094 10.871094 38.722656 8.199219 35.664062 5.1875 C 32.640625 2.207031 28.535156 0.472656 24.382812 0.207031 C 22.304688 0.0742188 20.214844 0.3125 18.242188 0.882812 L 17.511719 1.113281 C 17.269531 1.195312 17.03125 1.285156 16.792969 1.375 C 16.550781 1.460938 16.320312 1.570312 16.085938 1.667969 C 15.972656 1.714844 15.847656 1.765625 15.742188 1.816406 L 15.421875 1.976562 C 15.003906 2.191406 14.570312 2.394531 14.164062 2.625 C 13.765625 2.859375 13.371094 3.09375 12.976562 3.328125 C 11.445312 4.304688 10.082031 5.378906 8.820312 6.476562 C 8.214844 7.035156 7.589844 7.585938 7.03125 8.152344 C 6.75 8.433594 6.457031 8.714844 6.183594 8.996094 C 5.914062 9.28125 5.644531 9.5625 5.371094 9.84375 C 5.164062 10.058594 4.96875 10.273438 4.773438 10.488281 C 4.207031 10.261719 3.53125 10.367188 3.058594 10.816406 C 2.421875 11.425781 2.40625 12.429688 3.019531 13.058594 C 3.632812 13.691406 4.648438 13.707031 5.285156 13.101562 C 5.863281 12.546875 5.929688 11.660156 5.46875 11.03125 C 5.648438 10.835938 5.828125 10.636719 6.019531 10.445312 C 6.285156 10.164062 6.550781 9.886719 6.820312 9.605469 C 7.089844 9.328125 7.375 9.054688 7.652344 8.777344 C 8.203125 8.214844 8.816406 7.679688 9.40625 7.132812 C 10.640625 6.058594 11.96875 5.011719 13.449219 4.066406 C 13.832031 3.839844 14.214844 3.613281 14.597656 3.386719 C 14.988281 3.167969 15.402344 2.96875 15.808594 2.765625 L 16.113281 2.613281 C 16.214844 2.5625 16.332031 2.515625 16.441406 2.46875 C 16.664062 2.375 16.882812 2.273438 17.113281 2.191406 C 17.339844 2.105469 17.566406 2.019531 17.796875 1.941406 L 18.492188 1.722656 C 20.367188 1.179688 22.351562 0.953125 24.324219 1.078125 C 25.089844 1.128906 25.847656 1.230469 26.601562 1.386719 C 26.082031 1.335938 25.5625 1.308594 25.046875 1.304688 C 24.25 1.296875 23.453125 1.363281 22.671875 1.480469 C 21.886719 1.59375 21.117188 1.773438 20.367188 2.003906 C 19.621094 2.226562 18.882812 2.523438 18.199219 2.847656 C 17.867188 3.015625 17.535156 3.183594 17.207031 3.347656 C 17.039062 3.429688 16.882812 3.527344 16.726562 3.617188 L 16.257812 3.894531 L 15.789062 4.175781 C 15.632812 4.265625 15.492188 4.371094 15.34375 4.472656 C 15.046875 4.671875 14.753906 4.871094 14.460938 5.074219 C 14.179688 5.28125 13.90625 5.496094 13.628906 5.707031 L 13.214844 6.023438 C 13.078125 6.128906 12.949219 6.242188 12.820312 6.351562 C 10.714844 8.105469 8.90625 9.980469 7.242188 11.835938 C 5.578125 13.691406 4.054688 15.535156 2.601562 17.3125 C 2.503906 17.4375 2.402344 17.558594 2.304688 17.683594 C 1.761719 17.519531 1.152344 17.640625 0.71875 18.054688 C 0.0820312 18.664062 0.0625 19.667969 0.675781 20.300781 " fill-opacity="1" fill-rule="nonzero"/></g><g fill="#ffffff" fill-opacity="1"><g transform="translate(45.505625, 21.47875)"><g><path d="M 0.671875 -0.59375 L 0.671875 -8.515625 C 0.671875 -8.671875 0.726562 -8.804688 0.84375 -8.921875 C 0.957031 -9.046875 1.097656 -9.109375 1.265625 -9.109375 L 3.84375 -9.109375 C 5.882812 -9.109375 6.90625 -8.21875 6.90625 -6.4375 C 6.90625 -5.144531 6.40625 -4.300781 5.40625 -3.90625 L 6.921875 -1.15625 C 6.960938 -1.101562 6.984375 -1.03125 6.984375 -0.9375 C 6.984375 -0.695312 6.851562 -0.46875 6.59375 -0.25 C 6.332031 -0.03125 6.054688 0.078125 5.765625 0.078125 C 5.472656 0.078125 5.265625 -0.0390625 5.140625 -0.28125 L 3.4375 -3.59375 L 2.609375 -3.59375 L 2.609375 -0.59375 C 2.609375 -0.40625 2.515625 -0.257812 2.328125 -0.15625 C 2.140625 -0.0507812 1.910156 0 1.640625 0 C 1.378906 0 1.148438 -0.0507812 0.953125 -0.15625 C 0.765625 -0.257812 0.671875 -0.40625 0.671875 -0.59375 Z M 2.609375 -5.09375 L 3.84375 -5.09375 C 4.207031 -5.09375 4.484375 -5.179688 4.671875 -5.359375 C 4.867188 -5.535156 4.96875 -5.832031 4.96875 -6.25 C 4.96875 -6.664062 4.867188 -6.960938 4.671875 -7.140625 C 4.484375 -7.316406 4.207031 -7.40625 3.84375 -7.40625 L 2.609375 -7.40625 Z M 2.609375 -5.09375 "/></g></g></g><g fill="#ffffff" fill-opacity="1"><g transform="translate(52.780978, 21.47875)"><g><path d="M 0.671875 -0.59375 L 0.671875 -8.5 C 0.671875 -8.695312 0.753906 -8.847656 0.921875 -8.953125 C 1.085938 -9.054688 1.285156 -9.109375 1.515625 -9.109375 L 5.84375 -9.109375 C 6.03125 -9.109375 6.171875 -9.023438 6.265625 -8.859375 C 6.367188 -8.691406 6.421875 -8.492188 6.421875 -8.265625 C 6.421875 -8.023438 6.367188 -7.820312 6.265625 -7.65625 C 6.160156 -7.488281 6.019531 -7.40625 5.84375 -7.40625 L 2.609375 -7.40625 L 2.609375 -5.3125 L 4.5 -5.3125 C 4.675781 -5.3125 4.816406 -5.234375 4.921875 -5.078125 C 5.023438 -4.929688 5.078125 -4.753906 5.078125 -4.546875 C 5.078125 -4.359375 5.023438 -4.1875 4.921875 -4.03125 C 4.828125 -3.882812 4.6875 -3.8125 4.5 -3.8125 L 2.609375 -3.8125 L 2.609375 -0.59375 C 2.609375 -0.40625 2.515625 -0.257812 2.328125 -0.15625 C 2.140625 -0.0507812 1.910156 0 1.640625 0 C 1.378906 0 1.148438 -0.0507812 0.953125 -0.15625 C 0.765625 -0.257812 0.671875 -0.40625 0.671875 -0.59375 Z M 0.671875 -0.59375 "/></g></g></g><g fill="#ffffff" fill-opacity="1"><g transform="translate(59.196743, 21.47875)"><g><path d="M 0.390625 -2.984375 C 0.390625 -3.210938 0.441406 -3.398438 0.546875 -3.546875 C 0.648438 -3.703125 0.789062 -3.78125 0.96875 -3.78125 L 4.203125 -3.78125 C 4.367188 -3.78125 4.507812 -3.703125 4.625 -3.546875 C 4.75 -3.390625 4.8125 -3.203125 4.8125 -2.984375 C 4.8125 -2.765625 4.75 -2.578125 4.625 -2.421875 C 4.507812 -2.273438 4.367188 -2.203125 4.203125 -2.203125 L 0.96875 -2.203125 C 0.789062 -2.203125 0.648438 -2.273438 0.546875 -2.421875 C 0.441406 -2.566406 0.390625 -2.753906 0.390625 -2.984375 Z M 0.390625 -2.984375 "/></g></g></g><g fill="#ffd322" fill-opacity="1"><g transform="translate(64.376681, 21.47875)"><g><path d="M 0.671875 -0.59375 L 0.671875 -8.5 C 0.671875 -8.695312 0.765625 -8.847656 0.953125 -8.953125 C 1.148438 -9.054688 1.378906 -9.109375 1.640625 -9.109375 C 2.015625 -9.109375 2.289062 -9.050781 2.46875 -8.9375 C 2.644531 -8.832031 2.847656 -8.5625 3.078125 -8.125 L 5.09375 -4.28125 L 5.09375 -8.515625 C 5.09375 -8.703125 5.1875 -8.847656 5.375 -8.953125 C 5.570312 -9.054688 5.800781 -9.109375 6.0625 -9.109375 C 6.332031 -9.109375 6.5625 -9.054688 6.75 -8.953125 C 6.9375 -8.847656 7.03125 -8.703125 7.03125 -8.515625 L 7.03125 -0.59375 C 7.03125 -0.40625 6.9375 -0.257812 6.75 -0.15625 C 6.5625 -0.0507812 6.332031 0 6.0625 0 C 5.53125 0 5.171875 -0.171875 4.984375 -0.515625 L 2.609375 -4.828125 L 2.609375 -0.59375 C 2.609375 -0.40625 2.515625 -0.257812 2.328125 -0.15625 C 2.140625 -0.0507812 1.910156 0 1.640625 0 C 1.378906 0 1.148438 -0.0507812 0.953125 -0.15625 C 0.765625 -0.257812 0.671875 -0.40625 0.671875 -0.59375 Z M 0.671875 -0.59375 "/></g></g></g><g fill="#ffd322" fill-opacity="1"><g transform="translate(72.088057, 21.47875)"><g><path d="M 0.34375 -2.515625 L 0.34375 -3.421875 C 0.34375 -4.128906 0.617188 -4.734375 1.171875 -5.234375 C 1.734375 -5.742188 2.410156 -6 3.203125 -6 C 3.941406 -6 4.570312 -5.773438 5.09375 -5.328125 C 5.613281 -4.890625 5.875 -4.328125 5.875 -3.640625 C 5.875 -3.367188 5.835938 -3.148438 5.765625 -2.984375 C 5.703125 -2.816406 5.601562 -2.703125 5.46875 -2.640625 C 5.34375 -2.578125 5.222656 -2.535156 5.109375 -2.515625 C 4.992188 -2.492188 4.847656 -2.484375 4.671875 -2.484375 L 2.265625 -2.484375 L 2.265625 -2.40625 C 2.265625 -2.09375 2.378906 -1.84375 2.609375 -1.65625 C 2.847656 -1.46875 3.15625 -1.375 3.53125 -1.375 C 3.820312 -1.375 4.128906 -1.453125 4.453125 -1.609375 C 4.773438 -1.765625 4.988281 -1.84375 5.09375 -1.84375 C 5.300781 -1.84375 5.46875 -1.742188 5.59375 -1.546875 C 5.726562 -1.347656 5.796875 -1.164062 5.796875 -1 C 5.796875 -0.738281 5.570312 -0.484375 5.125 -0.234375 C 4.6875 0.00390625 4.140625 0.125 3.484375 0.125 C 2.554688 0.125 1.800781 -0.113281 1.21875 -0.59375 C 0.632812 -1.082031 0.34375 -1.722656 0.34375 -2.515625 Z M 2.265625 -3.5625 L 3.8125 -3.5625 C 3.988281 -3.5625 4.078125 -3.660156 4.078125 -3.859375 C 4.078125 -4.085938 3.984375 -4.269531 3.796875 -4.40625 C 3.617188 -4.539062 3.40625 -4.609375 3.15625 -4.609375 C 2.914062 -4.609375 2.707031 -4.539062 2.53125 -4.40625 C 2.351562 -4.269531 2.265625 -4.085938 2.265625 -3.859375 Z M 2.265625 -3.5625 "/></g></g></g><g fill="#ffd322" fill-opacity="1"><g transform="translate(78.267125, 21.47875)"><g><path d="M 0.53125 -2.109375 L 0.53125 -7.921875 C 0.53125 -8.085938 0.628906 -8.222656 0.828125 -8.328125 C 1.035156 -8.441406 1.257812 -8.5 1.5 -8.5 C 1.75 -8.5 1.972656 -8.441406 2.171875 -8.328125 C 2.367188 -8.222656 2.46875 -8.085938 2.46875 -7.921875 L 2.46875 -5.921875 L 3.875 -5.921875 C 4.019531 -5.921875 4.132812 -5.851562 4.21875 -5.71875 C 4.300781 -5.582031 4.34375 -5.425781 4.34375 -5.25 C 4.34375 -5.050781 4.300781 -4.882812 4.21875 -4.75 C 4.132812 -4.625 4.019531 -4.5625 3.875 -4.5625 L 2.46875 -4.5625 L 2.46875 -2.109375 C 2.46875 -1.921875 2.503906 -1.789062 2.578125 -1.71875 C 2.648438 -1.65625 2.78125 -1.625 2.96875 -1.625 L 3.515625 -1.625 C 3.773438 -1.625 3.972656 -1.539062 4.109375 -1.375 C 4.253906 -1.21875 4.328125 -1.03125 4.328125 -0.8125 C 4.328125 -0.582031 4.253906 -0.390625 4.109375 -0.234375 C 3.972656 -0.078125 3.773438 0 3.515625 0 L 2.96875 0 C 1.34375 0 0.53125 -0.703125 0.53125 -2.109375 Z M 0.53125 -2.109375 "/></g></g></g><g fill="#ffd322" fill-opacity="1"><g transform="translate(82.801764, 21.47875)"><g><path d="M 0.03125 -5.234375 C 0.03125 -5.441406 0.171875 -5.617188 0.453125 -5.765625 C 0.742188 -5.921875 1.023438 -6 1.296875 -6 C 1.585938 -6 1.765625 -5.898438 1.828125 -5.703125 L 2.9375 -2.546875 L 3.734375 -5.21875 C 3.804688 -5.46875 4.015625 -5.59375 4.359375 -5.59375 C 4.710938 -5.59375 4.925781 -5.46875 5 -5.21875 L 5.796875 -2.546875 L 6.90625 -5.703125 C 6.976562 -5.898438 7.15625 -6 7.4375 -6 C 7.707031 -6 7.984375 -5.921875 8.265625 -5.765625 C 8.554688 -5.609375 8.703125 -5.421875 8.703125 -5.203125 C 8.703125 -5.109375 8.6875 -5.03125 8.65625 -4.96875 L 6.734375 -0.171875 C 6.640625 0.046875 6.390625 0.15625 5.984375 0.15625 C 5.535156 0.15625 5.269531 0.046875 5.1875 -0.171875 L 4.375 -2.34375 L 3.546875 -0.171875 C 3.460938 0.046875 3.191406 0.15625 2.734375 0.15625 C 2.335938 0.15625 2.09375 0.046875 2 -0.171875 L 0.09375 -4.96875 C 0.0507812 -5.070312 0.03125 -5.160156 0.03125 -5.234375 Z M 0.03125 -5.234375 "/></g></g></g><g fill="#ffd322" fill-opacity="1"><g transform="translate(91.547136, 21.47875)"><g><path d="M 0.34375 -2.515625 L 0.34375 -3.390625 C 0.34375 -4.097656 0.617188 -4.707031 1.171875 -5.21875 C 1.722656 -5.738281 2.382812 -6 3.15625 -6 C 3.925781 -6 4.59375 -5.738281 5.15625 -5.21875 C 5.71875 -4.707031 6 -4.097656 6 -3.390625 L 6 -2.515625 C 6 -1.816406 5.710938 -1.203125 5.140625 -0.671875 C 4.578125 -0.140625 3.914062 0.125 3.15625 0.125 C 2.40625 0.125 1.75 -0.140625 1.1875 -0.671875 C 0.625 -1.203125 0.34375 -1.816406 0.34375 -2.515625 Z M 2.265625 -2.515625 C 2.265625 -2.265625 2.351562 -2.039062 2.53125 -1.84375 C 2.707031 -1.65625 2.914062 -1.5625 3.15625 -1.5625 C 3.40625 -1.5625 3.617188 -1.65625 3.796875 -1.84375 C 3.984375 -2.039062 4.078125 -2.265625 4.078125 -2.515625 L 4.078125 -3.390625 C 4.078125 -3.628906 3.984375 -3.84375 3.796875 -4.03125 C 3.617188 -4.226562 3.40625 -4.328125 3.15625 -4.328125 C 2.914062 -4.328125 2.707031 -4.226562 2.53125 -4.03125 C 2.351562 -3.84375 2.265625 -3.628906 2.265625 -3.390625 Z M 2.265625 -2.515625 "/></g></g></g><g fill="#ffd322" fill-opacity="1"><g transform="translate(97.888153, 21.47875)"><g><path d="M 0.5625 -0.59375 L 0.5625 -5.34375 C 0.5625 -5.519531 0.648438 -5.660156 0.828125 -5.765625 C 1.003906 -5.867188 1.226562 -5.921875 1.5 -5.921875 C 1.75 -5.921875 1.953125 -5.867188 2.109375 -5.765625 C 2.273438 -5.660156 2.359375 -5.519531 2.359375 -5.34375 L 2.359375 -4.875 C 2.492188 -5.175781 2.703125 -5.4375 2.984375 -5.65625 C 3.265625 -5.882812 3.550781 -6 3.84375 -6 L 4.203125 -6 C 4.390625 -6 4.550781 -5.914062 4.6875 -5.75 C 4.820312 -5.582031 4.890625 -5.390625 4.890625 -5.171875 C 4.890625 -4.929688 4.820312 -4.726562 4.6875 -4.5625 C 4.550781 -4.40625 4.390625 -4.328125 4.203125 -4.328125 L 3.84375 -4.328125 C 3.488281 -4.328125 3.171875 -4.148438 2.890625 -3.796875 C 2.617188 -3.453125 2.484375 -3.007812 2.484375 -2.46875 L 2.484375 -0.59375 C 2.484375 -0.445312 2.382812 -0.3125 2.1875 -0.1875 C 2 -0.0625 1.769531 0 1.5 0 C 1.238281 0 1.015625 -0.0546875 0.828125 -0.171875 C 0.648438 -0.296875 0.5625 -0.4375 0.5625 -0.59375 Z M 0.5625 -0.59375 "/></g></g></g><g fill="#ffd322" fill-opacity="1"><g transform="translate(102.796524, 21.47875)"><g><path d="M 0.578125 -0.59375 L 0.578125 -8.734375 C 0.578125 -8.898438 0.664062 -9.035156 0.84375 -9.140625 C 1.019531 -9.253906 1.242188 -9.3125 1.515625 -9.3125 C 1.796875 -9.3125 2.03125 -9.253906 2.21875 -9.140625 C 2.40625 -9.035156 2.5 -8.898438 2.5 -8.734375 L 2.5 -3.84375 L 4.5625 -5.859375 C 4.664062 -5.953125 4.789062 -6 4.9375 -6 C 5.144531 -6 5.351562 -5.894531 5.5625 -5.6875 C 5.769531 -5.488281 5.875 -5.285156 5.875 -5.078125 C 5.875 -4.953125 5.828125 -4.84375 5.734375 -4.75 L 4.40625 -3.53125 L 6.109375 -1.140625 C 6.179688 -1.023438 6.21875 -0.921875 6.21875 -0.828125 C 6.21875 -0.617188 6.09375 -0.40625 5.84375 -0.1875 C 5.59375 0.0195312 5.347656 0.125 5.109375 0.125 C 4.910156 0.125 4.753906 0.046875 4.640625 -0.109375 L 3.140625 -2.34375 L 2.5 -1.75 L 2.5 -0.59375 C 2.5 -0.445312 2.398438 -0.3125 2.203125 -0.1875 C 2.015625 -0.0625 1.785156 0 1.515625 0 C 1.253906 0 1.03125 -0.0546875 0.84375 -0.171875 C 0.664062 -0.296875 0.578125 -0.4375 0.578125 -0.59375 Z M 0.578125 -0.59375 "/></g></g></g></svg>